<svg width="24" height="24" viewBox="0 0 24 24" fill="none" xmlns="http://www.w3.org/2000/svg">
<path d="M11 1.25C16.3848 1.25 20.75 5.61522 20.75 11C20.75 12.3435 20.4782 13.6254 19.9854 14.792L19.9512 14.8613C19.7685 15.1945 19.3595 15.3415 19.002 15.1904C18.6206 15.0291 18.4424 14.5894 18.6035 14.208L18.751 13.834C19.0739 12.9511 19.25 11.9968 19.25 11C19.25 6.44365 15.5563 2.75 11 2.75C6.44365 2.75 2.75 6.44365 2.75 11C2.75 15.5563 6.44365 19.25 11 19.25C12.7521 19.25 14.3747 18.7047 15.71 17.7744C15.9737 17.5906 16.1977 17.4337 16.3818 17.3203C16.5572 17.2124 16.7746 17.0931 17.0195 17.0459L17.1465 17.0254C17.4367 16.9875 17.6917 17.0205 17.9785 17.1309C18.1997 17.216 18.3768 17.352 18.5234 17.4805C18.6692 17.6081 18.8367 17.7762 19.0254 17.9648L21.5303 20.4697L21.582 20.5264C21.8223 20.8209 21.8049 21.2557 21.5303 21.5303C21.2557 21.8049 20.8209 21.8223 20.5264 21.582L20.4697 21.5303L17.9648 19.0254C17.7618 18.8223 17.6348 18.6967 17.5352 18.6094C17.4481 18.5331 17.4226 18.5233 17.4336 18.5283C17.4098 18.5194 17.3946 18.5149 17.3857 18.5127C17.378 18.5107 17.3742 18.5109 17.373 18.5107C17.3724 18.5107 17.3684 18.5101 17.3594 18.5107C17.351 18.5113 17.3371 18.5128 17.3154 18.5166C17.3047 18.5214 17.2607 18.5406 17.168 18.5977C17.0288 18.6833 16.8461 18.8107 16.5674 19.0049C14.9887 20.1048 13.0686 20.75 11 20.75C5.61522 20.75 1.25 16.3848 1.25 11C1.25 5.61522 5.61522 1.25 11 1.25Z" fill="#E8EAED"/>
</svg>
